<svg width="603" height="181" viewBox="0 0 603 181" fill="none" xmlns="http://www.w3.org/2000/svg">
<path d="M188.576 100.524L186 96.1531C243.971 62.2167 300.911 62.2167 346 96.1531L342.908 100.267C299.623 67.6157 244.744 67.6157 188.576 100.524Z" fill="white"/>
<path d="M287.771 161L282.618 159.247C282.876 158.662 298.593 95.2565 263.552 78.0171L265.614 72.7576C305.034 92.0424 287.771 160.123 287.771 161Z" fill="white"/>
<path d="M334.148 161C334.148 160.39 332.86 94.778 294.728 78.2987L296.531 72.5005C313.794 79.8246 326.676 97.5245 333.891 123.769C339.044 143.3 339.301 160.39 339.301 161H334.148Z" fill="white"/>
<path d="M329.253 89.2116L287.771 11.3121L254.019 76.3569L249.382 73.786L287.771 0L333.891 86.6407L329.253 89.2116Z" fill="white"/>
<path d="M230.831 81.4987L226.193 78.9278L255.565 23.3955L269.478 48.0765L264.841 50.6475L255.565 34.1935L230.831 81.4987Z" fill="white"/>
<path d="M249.124 58.1033L242.167 51.1617L245.775 47.5624L249.124 50.9046L254.277 45.7628L261.233 52.7043L257.626 56.3036L254.277 52.9614L249.124 58.1033Z" fill="white"/>
<path d="M298.077 45.2485L290.348 37.5357L282.618 45.2485L273.085 35.7361L276.692 32.1368L282.618 38.0499L290.348 30.3371L298.077 38.0499L304.003 32.1368L307.61 35.7361L298.077 45.2485Z" fill="white"/>
<path d="M204.19 84C200.545 84 192 70.1143 192 64.1905C192 57.469 197.469 52 204.19 52C210.912 52 216.381 57.469 216.381 64.1905C216.381 70.1143 207.836 84 204.19 84ZM204.19 55.0476C199.149 55.0476 195.048 59.149 195.048 64.1905C195.048 69.3265 202.048 79.5657 204.19 80.877C206.333 79.5657 213.333 69.3265 213.333 64.1905C213.333 59.149 209.232 55.0476 204.19 55.0476Z" fill="white"/>
<path d="M204.19 65.7143C205.453 65.7143 206.476 64.691 206.476 63.4286C206.476 62.1662 205.453 61.1429 204.19 61.1429C202.928 61.1429 201.905 62.1662 201.905 63.4286C201.905 64.691 202.928 65.7143 204.19 65.7143Z" fill="white"/>
<path d="M309.19 160C305.545 160 297 146.114 297 140.19C297 133.469 302.469 128 309.19 128C315.912 128 321.381 133.469 321.381 140.19C321.381 146.114 312.836 160 309.19 160ZM309.19 131.048C304.149 131.048 300.048 135.149 300.048 140.19C300.048 145.326 307.048 155.566 309.19 156.877C311.333 155.566 318.333 145.326 318.333 140.19C318.333 135.149 314.232 131.048 309.19 131.048Z" fill="white"/>
<path d="M309.19 141.714C310.453 141.714 311.476 140.691 311.476 139.429C311.476 138.166 310.453 137.143 309.19 137.143C307.928 137.143 306.905 138.166 306.905 139.429C306.905 140.691 307.928 141.714 309.19 141.714Z" fill="white"/>
<path d="M400.16 161L388.72 144.6C388.24 144.653 387.52 144.68 386.56 144.68H373.92V161H363.52V105H386.56C391.413 105 395.627 105.8 399.2 107.4C402.827 109 405.6 111.293 407.52 114.28C409.44 117.267 410.4 120.813 410.4 124.92C410.4 129.133 409.36 132.76 407.28 135.8C405.253 138.84 402.32 141.107 398.48 142.6L411.36 161H400.16ZM399.92 124.92C399.92 121.347 398.747 118.6 396.4 116.68C394.053 114.76 390.613 113.8 386.08 113.8H373.92V136.12H386.08C390.613 136.12 394.053 135.16 396.4 133.24C398.747 131.267 399.92 128.493 399.92 124.92ZM440.276 161.56C435.956 161.56 432.062 160.627 428.596 158.76C425.129 156.893 422.409 154.307 420.436 151C418.516 147.64 417.556 143.853 417.556 139.64C417.556 135.427 418.516 131.667 420.436 128.36C422.409 125.053 425.129 122.467 428.596 120.6C432.062 118.733 435.956 117.8 440.276 117.8C444.649 117.8 448.569 118.733 452.036 120.6C455.502 122.467 458.196 125.053 460.116 128.36C462.089 131.667 463.076 135.427 463.076 139.64C463.076 143.853 462.089 147.64 460.116 151C458.196 154.307 455.502 156.893 452.036 158.76C448.569 160.627 444.649 161.56 440.276 161.56ZM440.276 153C443.956 153 446.996 151.773 449.396 149.32C451.796 146.867 452.996 143.64 452.996 139.64C452.996 135.64 451.796 132.413 449.396 129.96C446.996 127.507 443.956 126.28 440.276 126.28C436.596 126.28 433.556 127.507 431.156 129.96C428.809 132.413 427.636 135.64 427.636 139.64C427.636 143.64 428.809 146.867 431.156 149.32C433.556 151.773 436.596 153 440.276 153ZM513.998 118.28V161H504.478V155.56C502.878 157.48 500.878 158.973 498.478 160.04C496.078 161.053 493.491 161.56 490.718 161.56C485.011 161.56 480.505 159.987 477.198 156.84C473.945 153.64 472.318 148.92 472.318 142.68V118.28H482.318V141.32C482.318 145.16 483.171 148.04 484.878 149.96C486.638 151.827 489.118 152.76 492.318 152.76C495.891 152.76 498.718 151.667 500.798 149.48C502.931 147.24 503.998 144.04 503.998 139.88V118.28H513.998ZM552.771 158.68C551.598 159.64 550.158 160.36 548.451 160.84C546.798 161.32 545.038 161.56 543.171 161.56C538.478 161.56 534.851 160.333 532.291 157.88C529.731 155.427 528.451 151.853 528.451 147.16V126.6H521.411V118.6H528.451V108.84H538.451V118.6H549.891V126.6H538.451V146.92C538.451 149 538.958 150.6 539.971 151.72C540.985 152.787 542.451 153.32 544.371 153.32C546.611 153.32 548.478 152.733 549.971 151.56L552.771 158.68ZM599.751 139.88C599.751 140.573 599.698 141.56 599.591 142.84H566.071C566.658 145.987 568.178 148.493 570.631 150.36C573.138 152.173 576.231 153.08 579.911 153.08C584.605 153.08 588.471 151.533 591.511 148.44L596.871 154.6C594.951 156.893 592.525 158.627 589.591 159.8C586.658 160.973 583.351 161.56 579.671 161.56C574.978 161.56 570.845 160.627 567.271 158.76C563.698 156.893 560.925 154.307 558.951 151C557.031 147.64 556.071 143.853 556.071 139.64C556.071 135.48 557.005 131.747 558.871 128.44C560.791 125.08 563.431 122.467 566.791 120.6C570.151 118.733 573.938 117.8 578.151 117.8C582.311 117.8 586.018 118.733 589.271 120.6C592.578 122.413 595.138 125 596.951 128.36C598.818 131.667 599.751 135.507 599.751 139.88ZM578.151 125.8C574.951 125.8 572.231 126.76 569.991 128.68C567.805 130.547 566.471 133.053 565.991 136.2H590.231C589.805 133.107 588.498 130.6 586.311 128.68C584.125 126.76 581.405 125.8 578.151 125.8Z" fill="white"/>
<path d="M24.88 161.8C20.56 161.8 16.3733 161.187 12.32 159.96C8.32 158.733 5.14667 157.107 2.8 155.08L6.4 147C8.69333 148.813 11.4933 150.307 14.8 151.48C18.16 152.6 21.52 153.16 24.88 153.16C29.04 153.16 32.1333 152.493 34.16 151.16C36.24 149.827 37.28 148.067 37.28 145.88C37.28 144.28 36.6933 142.973 35.52 141.96C34.4 140.893 32.96 140.067 31.2 139.48C29.44 138.893 27.04 138.227 24 137.48C19.7333 136.467 16.2667 135.453 13.6 134.44C10.9867 133.427 8.72 131.853 6.8 129.72C4.93333 127.533 4 124.6 4 120.92C4 117.827 4.82667 115.027 6.48 112.52C8.18667 109.96 10.72 107.933 14.08 106.44C17.4933 104.947 21.6533 104.2 26.56 104.2C29.9733 104.2 33.3333 104.627 36.64 105.48C39.9467 106.333 42.8 107.56 45.2 109.16L41.92 117.24C39.4667 115.8 36.9067 114.707 34.24 113.96C31.5733 113.213 28.9867 112.84 26.48 112.84C22.3733 112.84 19.3067 113.533 17.28 114.92C15.3067 116.307 14.32 118.147 14.32 120.44C14.32 122.04 14.88 123.347 16 124.36C17.1733 125.373 18.64 126.173 20.4 126.76C22.16 127.347 24.56 128.013 27.6 128.76C31.76 129.72 35.1733 130.733 37.84 131.8C40.5067 132.813 42.7733 134.387 44.64 136.52C46.56 138.653 47.52 141.533 47.52 145.16C47.52 148.253 46.6667 151.053 44.96 153.56C43.3067 156.067 40.7733 158.067 37.36 159.56C33.9467 161.053 29.7867 161.8 24.88 161.8ZM76.4725 161.56C72.0458 161.56 68.0725 160.627 64.5525 158.76C61.0325 156.893 58.2858 154.307 56.3125 151C54.3392 147.64 53.3525 143.853 53.3525 139.64C53.3525 135.427 54.3392 131.667 56.3125 128.36C58.2858 125.053 61.0058 122.467 64.4725 120.6C67.9925 118.733 71.9925 117.8 76.4725 117.8C80.6858 117.8 84.3658 118.653 87.5125 120.36C90.7125 122.067 93.1125 124.52 94.7125 127.72L87.0325 132.2C85.8058 130.227 84.2592 128.76 82.3925 127.8C80.5792 126.787 78.5792 126.28 76.3925 126.28C72.6592 126.28 69.5658 127.507 67.1125 129.96C64.6592 132.36 63.4325 135.587 63.4325 139.64C63.4325 143.693 64.6325 146.947 67.0325 149.4C69.4858 151.8 72.6058 153 76.3925 153C78.5792 153 80.5792 152.52 82.3925 151.56C84.2592 150.547 85.8058 149.053 87.0325 147.08L94.7125 151.56C93.0592 154.76 90.6325 157.24 87.4325 159C84.2858 160.707 80.6325 161.56 76.4725 161.56ZM142.892 139.88C142.892 140.573 142.839 141.56 142.732 142.84H109.212C109.799 145.987 111.319 148.493 113.772 150.36C116.279 152.173 119.372 153.08 123.052 153.08C127.745 153.08 131.612 151.533 134.652 148.44L140.012 154.6C138.092 156.893 135.665 158.627 132.732 159.8C129.799 160.973 126.492 161.56 122.812 161.56C118.119 161.56 113.985 160.627 110.412 158.76C106.839 156.893 104.065 154.307 102.092 151C100.172 147.64 99.2119 143.853 99.2119 139.64C99.2119 135.48 100.145 131.747 102.012 128.44C103.932 125.08 106.572 122.467 109.932 120.6C113.292 118.733 117.079 117.8 121.292 117.8C125.452 117.8 129.159 118.733 132.412 120.6C135.719 122.413 138.279 125 140.092 128.36C141.959 131.667 142.892 135.507 142.892 139.88ZM121.292 125.8C118.092 125.8 115.372 126.76 113.132 128.68C110.945 130.547 109.612 133.053 109.132 136.2H133.372C132.945 133.107 131.639 130.6 129.452 128.68C127.265 126.76 124.545 125.8 121.292 125.8ZM176.738 117.8C182.124 117.8 186.444 119.373 189.698 122.52C192.951 125.667 194.578 130.333 194.578 136.52V161H184.578V137.8C184.578 134.067 183.698 131.267 181.938 129.4C180.178 127.48 177.671 126.52 174.418 126.52C170.738 126.52 167.831 127.64 165.698 129.88C163.564 132.067 162.498 135.24 162.498 139.4V161H152.498V118.28H162.018V123.8C163.671 121.827 165.751 120.333 168.258 119.32C170.764 118.307 173.591 117.8 176.738 117.8ZM207.263 118.28H217.263V161H207.263V118.28ZM212.303 111.24C210.49 111.24 208.97 110.68 207.743 109.56C206.516 108.387 205.903 106.947 205.903 105.24C205.903 103.533 206.516 102.12 207.743 101C208.97 99.8267 210.49 99.24 212.303 99.24C214.116 99.24 215.636 99.8 216.863 100.92C218.09 101.987 218.703 103.347 218.703 105C218.703 106.76 218.09 108.253 216.863 109.48C215.69 110.653 214.17 111.24 212.303 111.24ZM249.988 161.56C245.561 161.56 241.588 160.627 238.068 158.76C234.548 156.893 231.801 154.307 229.828 151C227.855 147.64 226.868 143.853 226.868 139.64C226.868 135.427 227.855 131.667 229.828 128.36C231.801 125.053 234.521 122.467 237.988 120.6C241.508 118.733 245.508 117.8 249.988 117.8C254.201 117.8 257.881 118.653 261.028 120.36C264.228 122.067 266.628 124.52 268.228 127.72L260.548 132.2C259.321 130.227 257.775 128.76 255.908 127.8C254.095 126.787 252.095 126.28 249.908 126.28C246.175 126.28 243.081 127.507 240.628 129.96C238.175 132.36 236.948 135.587 236.948 139.64C236.948 143.693 238.148 146.947 240.548 149.4C243.001 151.8 246.121 153 249.908 153C252.095 153 254.095 152.52 255.908 151.56C257.775 150.547 259.321 149.053 260.548 147.08L268.228 151.56C266.575 154.76 264.148 157.24 260.948 159C257.801 160.707 254.148 161.56 249.988 161.56Z" fill="white"/>
</svg>
